<svg xmlns="http://www.w3.org/2000/svg" version="1.1" xmlns:xlink="http://www.w3.org/1999/xlink" width="512" height="512" x="0" y="0" viewBox="0 0 512 512" style="enable-background:new 0 0 512 512" xml:space="preserve" class=""><g><path d="M427.343 30v452c0 11.046-8.954 20-20 20H77.544c-11.046 0-20-8.954-20-20V100.566L148.122 10h259.222c11.045 0 19.999 8.954 19.999 20z" style="" fill="#ffffff" data-original="#ffffff" class=""></path><path d="M148.122 10v70.566c0 11.046-8.954 20-20 20H57.544L148.122 10zM444.456 442.72H158.122c-5.523 0-10-4.477-10-10V304.441c0-5.523 4.477-10 10-10h286.335c5.523 0 10 4.477 10 10V432.72c-.001 5.523-4.478 10-10.001 10z" style="" fill="#a0c8ff" data-original="#a0c8ff"></path><path d="M427.344 146.044V293.44M427.344 443.72V482c0 11.05-8.95 20-20 20h-329.8c-11.05 0-20-8.95-20-20V100.57L148.124 10h259.22c11.05 0 20 8.95 20 20v24.924" style="stroke-width:20;stroke-linecap:round;stroke-linejoin:round;stroke-miterlimit:10;" fill="none" stroke="#000000" stroke-width="20" stroke-linecap="round" stroke-linejoin="round" stroke-miterlimit="10" data-original="#000000" class=""></path><path d="M148.122 10v70.566c0 11.046-8.954 20-20 20H57.544L148.122 10zM444.456 442.72H158.122c-5.523 0-10-4.477-10-10V304.441c0-5.523 4.477-10 10-10h286.335c5.523 0 10 4.477 10 10V432.72c-.001 5.523-4.478 10-10.001 10zM264.688 152.376l-47.31 74.793M175.395 227.169l-36.047-37.396 36.047-37.397M309.492 152.376l36.048 37.397-36.048 37.396M427.344 100.566h0M239.526 373.559l-.001 32.938" style="stroke-width:20;stroke-linecap:round;stroke-linejoin:round;stroke-miterlimit:10;" fill="none" stroke="#000000" stroke-width="20" stroke-linecap="round" stroke-linejoin="round" stroke-miterlimit="10" data-original="#000000" class=""></path><path d="M282.46 352.064c0 11.819-10 21.495-21.819 21.495h-21.115v-42.895h21.115c11.819 0 21.819 9.581 21.819 21.4zM313.145 330.664l25.056 38.374 24.851-38.176M338.103 409.108l.098-40.07" style="stroke-width:20;stroke-linecap:round;stroke-linejoin:round;stroke-miterlimit:10;" fill="none" stroke="#000000" stroke-width="20" stroke-linecap="round" stroke-linejoin="round" stroke-miterlimit="10" data-original="#000000" class=""></path></g></svg>